<?xml version="1.0" encoding="UTF-8" standalone="no"?>
<!DOCTYPE svg PUBLIC "-//W3C//DTD SVG 1.1//EN"
 "http://www.w3.org/Graphics/SVG/1.1/DTD/svg11.dtd">
<!-- Generated by graphviz version 2.38.0 (20140413.2041)
 -->
<!-- Title: G Pages: 1 -->
<svg width="1967pt" height="404pt"
 viewBox="0.00 0.00 1966.67 404.00" xmlns="http://www.w3.org/2000/svg" xmlns:xlink="http://www.w3.org/1999/xlink">
<g id="graph0" class="graph" transform="scale(1 1) rotate(0) translate(4 400)">
<title>G</title>
<polygon fill="white" stroke="none" points="-4,4 -4,-400 1962.67,-400 1962.67,4 -4,4"/>
<!-- n2 -->
<g id="node1" class="node"><title>n2</title>
<ellipse fill="none" stroke="red" cx="1042.58" cy="-18" rx="27" ry="18"/>
<text text-anchor="middle" x="1042.58" y="-14.3" font-family="Times,serif" font-size="14.00">all</text>
</g>
<!-- n8 -->
<g id="node2" class="node"><title>n8</title>
<ellipse fill="none" stroke="red" cx="1337.58" cy="-234" rx="166.271" ry="18"/>
<text text-anchor="middle" x="1337.58" y="-230.3" font-family="Times,serif" font-size="14.00">data/processed/ice_thickness.csv</text>
</g>
<!-- n15 -->
<g id="node8" class="node"><title>n15</title>
<ellipse fill="none" stroke="red" cx="899.578" cy="-162" rx="97.4827" ry="18"/>
<text text-anchor="middle" x="899.578" y="-158.3" font-family="Times,serif" font-size="14.00">results/density.svg</text>
</g>
<!-- n8&#45;&gt;n15 -->
<g id="edge18" class="edge"><title>n8&#45;&gt;n15</title>
<path fill="none" stroke="black" d="M1248.45,-218.789C1181.6,-208.127 1087.85,-193.165 1005.58,-180 997.443,-178.698 988.957,-177.339 980.483,-175.982"/>
<polygon fill="black" stroke="black" points="980.992,-172.519 970.564,-174.392 979.884,-179.43 980.992,-172.519"/>
</g>
<!-- n12 -->
<g id="node9" class="node"><title>n12</title>
<ellipse fill="none" stroke="red" cx="1559.58" cy="-162" rx="180.868" ry="18"/>
<text text-anchor="middle" x="1559.58" y="-158.3" font-family="Times,serif" font-size="14.00">results/median_ice_thickness_ci.svg</text>
</g>
<!-- n8&#45;&gt;n12 -->
<g id="edge20" class="edge"><title>n8&#45;&gt;n12</title>
<path fill="none" stroke="black" d="M1388.79,-216.853C1421.3,-206.6 1463.58,-193.27 1497.93,-182.438"/>
<polygon fill="black" stroke="black" points="1499.37,-185.654 1507.86,-179.309 1497.27,-178.978 1499.37,-185.654"/>
</g>
<!-- n13 -->
<g id="node10" class="node"><title>n13</title>
<ellipse fill="none" stroke="red" cx="1187.58" cy="-162" rx="172.769" ry="18"/>
<text text-anchor="middle" x="1187.58" y="-158.3" font-family="Times,serif" font-size="14.00">results/median_thickness_year.svg</text>
</g>
<!-- n8&#45;&gt;n13 -->
<g id="edge22" class="edge"><title>n8&#45;&gt;n13</title>
<path fill="none" stroke="black" d="M1302.03,-216.411C1281.26,-206.718 1254.84,-194.391 1232.63,-184.023"/>
<polygon fill="black" stroke="black" points="1233.93,-180.77 1223.39,-179.713 1230.97,-187.113 1233.93,-180.77"/>
</g>
<!-- n6 -->
<g id="node11" class="node"><title>n6</title>
<ellipse fill="none" stroke="red" cx="1858.58" cy="-162" rx="100.182" ry="18"/>
<text text-anchor="middle" x="1858.58" y="-158.3" font-family="Times,serif" font-size="14.00">results/p_value.csv</text>
</g>
<!-- n8&#45;&gt;n6 -->
<g id="edge24" class="edge"><title>n8&#45;&gt;n6</title>
<path fill="none" stroke="black" d="M1443.96,-220.109C1527.22,-209.828 1645.87,-194.755 1749.58,-180 1758.26,-178.765 1767.32,-177.428 1776.35,-176.066"/>
<polygon fill="black" stroke="black" points="1777.14,-179.485 1786.5,-174.52 1776.09,-172.564 1777.14,-179.485"/>
</g>
<!-- n10 -->
<g id="node3" class="node"><title>n10</title>
<ellipse fill="none" stroke="red" cx="1210.58" cy="-306" rx="136.476" ry="18"/>
<text text-anchor="middle" x="1210.58" y="-302.3" font-family="Times,serif" font-size="14.00">data/raw/ice_thickness.csv</text>
</g>
<!-- n10&#45;&gt;n8 -->
<g id="edge3" class="edge"><title>n10&#45;&gt;n8</title>
<path fill="none" stroke="black" d="M1240.68,-288.411C1257.95,-278.891 1279.83,-266.831 1298.43,-256.58"/>
<polygon fill="black" stroke="black" points="1300.19,-259.605 1307.26,-251.713 1296.81,-253.474 1300.19,-259.605"/>
</g>
<!-- n4 -->
<g id="node4" class="node"><title>n4</title>
<ellipse fill="none" stroke="green" cx="249.578" cy="-162" rx="249.656" ry="18"/>
<text text-anchor="middle" x="249.578" y="-158.3" font-family="Times,serif" font-size="14.00">doc/global_warming_effects_on_ice_thickness.Rmd</text>
</g>
<!-- n16 -->
<g id="node5" class="node"><title>n16</title>
<ellipse fill="none" stroke="red" cx="787.578" cy="-90" rx="249.656" ry="18"/>
<text text-anchor="middle" x="787.578" y="-86.3" font-family="Times,serif" font-size="14.00">doc/global_warming_effects_on_ice_thickness.html</text>
</g>
<!-- n4&#45;&gt;n16 -->
<g id="edge6" class="edge"><title>n4&#45;&gt;n16</title>
<path fill="none" stroke="black" d="M364.662,-146.026C452.135,-134.645 572.332,-119.006 662.234,-107.309"/>
<polygon fill="black" stroke="black" points="662.749,-110.771 672.214,-106.01 661.846,-103.83 662.749,-110.771"/>
</g>
<!-- n3 -->
<g id="node6" class="node"><title>n3</title>
<ellipse fill="none" stroke="red" cx="1298.58" cy="-90" rx="243.157" ry="18"/>
<text text-anchor="middle" x="1298.58" y="-86.3" font-family="Times,serif" font-size="14.00">doc/global_warming_effects_on_ice_thickness.md</text>
</g>
<!-- n4&#45;&gt;n3 -->
<g id="edge12" class="edge"><title>n4&#45;&gt;n3</title>
<path fill="none" stroke="black" d="M426.456,-149.286C587.965,-138.579 833.325,-122.284 1046.58,-108 1068.87,-106.507 1092.28,-104.934 1115.47,-103.373"/>
<polygon fill="black" stroke="black" points="1116,-106.845 1125.74,-102.682 1115.53,-99.8613 1116,-106.845"/>
</g>
<!-- n16&#45;&gt;n2 -->
<g id="edge1" class="edge"><title>n16&#45;&gt;n2</title>
<path fill="none" stroke="black" d="M847.686,-72.4996C897.639,-58.7871 966.959,-39.7581 1008.05,-28.4783"/>
<polygon fill="black" stroke="black" points="1009.14,-31.8078 1017.86,-25.7855 1007.29,-25.0576 1009.14,-31.8078"/>
</g>
<!-- n3&#45;&gt;n2 -->
<g id="edge2" class="edge"><title>n3&#45;&gt;n2</title>
<path fill="none" stroke="black" d="M1238.23,-72.4996C1187.95,-58.7499 1118.11,-39.6547 1076.91,-28.3865"/>
<polygon fill="black" stroke="black" points="1077.64,-24.9599 1067.07,-25.6984 1075.8,-31.7121 1077.64,-24.9599"/>
</g>
<!-- n5 -->
<g id="node7" class="node"><title>n5</title>
<ellipse fill="none" stroke="green" cx="650.578" cy="-162" rx="133.776" ry="18"/>
<text text-anchor="middle" x="650.578" y="-158.3" font-family="Times,serif" font-size="14.00">doc/ice_thickness_refs.bib</text>
</g>
<!-- n5&#45;&gt;n16 -->
<g id="edge7" class="edge"><title>n5&#45;&gt;n16</title>
<path fill="none" stroke="black" d="M683.045,-144.411C701.709,-134.875 725.362,-122.789 745.446,-112.527"/>
<polygon fill="black" stroke="black" points="747.08,-115.623 754.392,-107.956 743.895,-109.39 747.08,-115.623"/>
</g>
<!-- n5&#45;&gt;n3 -->
<g id="edge13" class="edge"><title>n5&#45;&gt;n3</title>
<path fill="none" stroke="black" d="M746.708,-149.388C762.369,-147.549 778.422,-145.696 793.578,-144 913.851,-130.54 1050.36,-116.275 1151.1,-105.938"/>
<polygon fill="black" stroke="black" points="1151.76,-109.389 1161.35,-104.887 1151.04,-102.425 1151.76,-109.389"/>
</g>
<!-- n15&#45;&gt;n16 -->
<g id="edge8" class="edge"><title>n15&#45;&gt;n16</title>
<path fill="none" stroke="black" d="M873.319,-144.588C858.48,-135.314 839.717,-123.587 823.529,-113.469"/>
<polygon fill="black" stroke="black" points="825.177,-110.372 814.842,-108.04 821.467,-116.308 825.177,-110.372"/>
</g>
<!-- n15&#45;&gt;n3 -->
<g id="edge14" class="edge"><title>n15&#45;&gt;n3</title>
<path fill="none" stroke="black" d="M967.715,-149.046C1031.17,-137.914 1126.54,-121.182 1198.61,-108.538"/>
<polygon fill="black" stroke="black" points="1199.38,-111.957 1208.62,-106.782 1198.17,-105.062 1199.38,-111.957"/>
</g>
<!-- n12&#45;&gt;n16 -->
<g id="edge9" class="edge"><title>n12&#45;&gt;n16</title>
<path fill="none" stroke="black" d="M1430.8,-149.323C1297.68,-137.253 1089.66,-118.39 946.417,-105.403"/>
<polygon fill="black" stroke="black" points="946.493,-101.895 936.218,-104.478 945.861,-108.867 946.493,-101.895"/>
</g>
<!-- n12&#45;&gt;n3 -->
<g id="edge15" class="edge"><title>n12&#45;&gt;n3</title>
<path fill="none" stroke="black" d="M1499.7,-144.941C1461.05,-134.574 1410.57,-121.035 1369.85,-110.115"/>
<polygon fill="black" stroke="black" points="1370.56,-106.681 1359.99,-107.471 1368.74,-113.442 1370.56,-106.681"/>
</g>
<!-- n13&#45;&gt;n16 -->
<g id="edge10" class="edge"><title>n13&#45;&gt;n16</title>
<path fill="none" stroke="black" d="M1103.24,-146.24C1040.45,-135.252 954.486,-120.209 888.122,-108.595"/>
<polygon fill="black" stroke="black" points="888.517,-105.111 878.063,-106.835 887.31,-112.006 888.517,-105.111"/>
</g>
<!-- n13&#45;&gt;n3 -->
<g id="edge16" class="edge"><title>n13&#45;&gt;n3</title>
<path fill="none" stroke="black" d="M1214.45,-144.055C1229.06,-134.837 1247.33,-123.319 1263.1,-113.371"/>
<polygon fill="black" stroke="black" points="1264.98,-116.326 1271.57,-108.032 1261.25,-110.405 1264.98,-116.326"/>
</g>
<!-- n6&#45;&gt;n16 -->
<g id="edge11" class="edge"><title>n6&#45;&gt;n16</title>
<path fill="none" stroke="black" d="M1788.94,-149.04C1775.89,-147.111 1762.34,-145.319 1749.58,-144 1438.38,-111.851 1358.9,-126.246 1046.58,-108 1022.76,-106.608 997.708,-105.065 972.959,-103.492"/>
<polygon fill="black" stroke="black" points="972.953,-99.9849 962.751,-102.841 972.508,-106.971 972.953,-99.9849"/>
</g>
<!-- n6&#45;&gt;n3 -->
<g id="edge17" class="edge"><title>n6&#45;&gt;n3</title>
<path fill="none" stroke="black" d="M1786.81,-149.413C1774.41,-147.523 1761.63,-145.647 1749.58,-144 1646.35,-129.89 1529.51,-116.223 1440.62,-106.303"/>
<polygon fill="black" stroke="black" points="1440.8,-102.801 1430.47,-105.173 1440.02,-109.758 1440.8,-102.801"/>
</g>
<!-- n14 -->
<g id="node12" class="node"><title>n14</title>
<ellipse fill="none" stroke="green" cx="942.578" cy="-234" rx="126.178" ry="18"/>
<text text-anchor="middle" x="942.578" y="-230.3" font-family="Times,serif" font-size="14.00">src/eda_figure_export.py</text>
</g>
<!-- n14&#45;&gt;n15 -->
<g id="edge19" class="edge"><title>n14&#45;&gt;n15</title>
<path fill="none" stroke="black" d="M932.169,-216.055C927.173,-207.922 921.077,-197.998 915.514,-188.943"/>
<polygon fill="black" stroke="black" points="918.406,-186.964 910.19,-180.275 912.442,-190.628 918.406,-186.964"/>
</g>
<!-- n14&#45;&gt;n13 -->
<g id="edge23" class="edge"><title>n14&#45;&gt;n13</title>
<path fill="none" stroke="black" d="M996.344,-217.638C1033.22,-207.101 1082.39,-193.054 1121.63,-181.841"/>
<polygon fill="black" stroke="black" points="1122.73,-185.168 1131.38,-179.055 1120.81,-178.437 1122.73,-185.168"/>
</g>
<!-- n7 -->
<g id="node13" class="node"><title>n7</title>
<ellipse fill="none" stroke="green" cx="1708.58" cy="-234" rx="143.775" ry="18"/>
<text text-anchor="middle" x="1708.58" y="-230.3" font-family="Times,serif" font-size="14.00">src/ice_thickness_analysis.R</text>
</g>
<!-- n7&#45;&gt;n12 -->
<g id="edge21" class="edge"><title>n7&#45;&gt;n12</title>
<path fill="none" stroke="black" d="M1673.27,-216.411C1652.63,-206.718 1626.4,-194.391 1604.33,-184.023"/>
<polygon fill="black" stroke="black" points="1605.69,-180.797 1595.15,-179.713 1602.71,-187.133 1605.69,-180.797"/>
</g>
<!-- n7&#45;&gt;n6 -->
<g id="edge25" class="edge"><title>n7&#45;&gt;n6</title>
<path fill="none" stroke="black" d="M1744.13,-216.411C1765.35,-206.506 1792.47,-193.85 1814.98,-183.345"/>
<polygon fill="black" stroke="black" points="1816.74,-186.389 1824.32,-178.988 1813.78,-180.045 1816.74,-186.389"/>
</g>
<!-- n11 -->
<g id="node14" class="node"><title>n11</title>
<ellipse fill="none" stroke="green" cx="1210.58" cy="-378" rx="98.5829" ry="18"/>
<text text-anchor="middle" x="1210.58" y="-374.3" font-family="Times,serif" font-size="14.00">src/import_data.py</text>
</g>
<!-- n11&#45;&gt;n10 -->
<g id="edge5" class="edge"><title>n11&#45;&gt;n10</title>
<path fill="none" stroke="black" d="M1210.58,-359.697C1210.58,-351.983 1210.58,-342.712 1210.58,-334.112"/>
<polygon fill="black" stroke="black" points="1214.08,-334.104 1210.58,-324.104 1207.08,-334.104 1214.08,-334.104"/>
</g>
<!-- n9 -->
<g id="node15" class="node"><title>n9</title>
<ellipse fill="none" stroke="green" cx="1463.58" cy="-306" rx="98.5829" ry="18"/>
<text text-anchor="middle" x="1463.58" y="-302.3" font-family="Times,serif" font-size="14.00">src/pre_process.py</text>
</g>
<!-- n9&#45;&gt;n8 -->
<g id="edge4" class="edge"><title>n9&#45;&gt;n8</title>
<path fill="none" stroke="black" d="M1434.35,-288.765C1417.24,-279.255 1395.39,-267.12 1376.79,-256.787"/>
<polygon fill="black" stroke="black" points="1378.4,-253.675 1367.96,-251.878 1375,-259.794 1378.4,-253.675"/>
</g>
</g>
</svg>
