<svg class="marks" width="497" height="493" viewBox="0 0 497 493" version="1.1" xmlns="http://www.w3.org/2000/svg" xmlns:xlink="http://www.w3.org/1999/xlink"><rect width="497" height="493" style="fill: white;"></rect><g transform="translate(52,155)"><g class="mark-group role-frame root"><g transform="translate(0,0)"><path class="background" d="M0.5,0.5h440v200h-440Z" style="fill: none; stroke: #ddd;"></path><g><g class="mark-group role-axis"><g transform="translate(0.5,0.5)"><path class="background" d="M0,0h0v0h0Z" style="pointer-events: none; fill: none;"></path><g><g class="mark-rule role-axis-grid" style="pointer-events: none;"><line transform="translate(0,200)" x2="440" y2="0" style="fill: none; stroke: #ddd; stroke-width: 1; opacity: 1;"></line><line transform="translate(0,150)" x2="440" y2="0" style="fill: none; stroke: #ddd; stroke-width: 1; opacity: 1;"></line><line transform="translate(0,100)" x2="440" y2="0" style="fill: none; stroke: #ddd; stroke-width: 1; opacity: 1;"></line><line transform="translate(0,50)" x2="440" y2="0" style="fill: none; stroke: #ddd; stroke-width: 1; opacity: 1;"></line><line transform="translate(0,0)" x2="440" y2="0" style="fill: none; stroke: #ddd; stroke-width: 1; opacity: 1;"></line></g></g></g></g><g class="mark-rect role-mark layer_0_marks"><path d="M302,142.75h16v57.25h-16Z" style="fill: #4c78a8;"></path><path d="M322,140h16v60h-16Z" style="fill: #4c78a8;"></path><path d="M382,156.45833333333331h16v43.541666666666686h-16Z" style="fill: #4c78a8;"></path><path d="M342,139.25h16v60.75h-16Z" style="fill: #4c78a8;"></path><path d="M42,109h16v91h-16Z" style="fill: #4c78a8;"></path><path d="M62,104.83333333333334h16v95.16666666666666h-16Z" style="fill: #4c78a8;"></path><path d="M82,113.2h16v86.8h-16Z" style="fill: #4c78a8;"></path><path d="M102,108.25h16v91.75h-16Z" style="fill: #4c78a8;"></path><path d="M122,108.75h16v91.25h-16Z" style="fill: #4c78a8;"></path><path d="M142,117.5h16v82.5h-16Z" style="fill: #4c78a8;"></path><path d="M182,112.25h16v87.75h-16Z" style="fill: #4c78a8;"></path><path d="M202,115.675h16v84.325h-16Z" style="fill: #4c78a8;"></path><path d="M222,106.4h16v93.6h-16Z" style="fill: #4c78a8;"></path><path d="M242,116h16v84h-16Z" style="fill: #4c78a8;"></path><path d="M262,120.8h16v79.2h-16Z" style="fill: #4c78a8;"></path><path d="M282,133.625h16v66.375h-16Z" style="fill: #4c78a8;"></path><path d="M422,47.5h16v152.5h-16Z" style="fill: #4c78a8;"></path><path d="M362,129h16v71h-16Z" style="fill: #4c78a8;"></path><path d="M22,138.4h16v61.599999999999994h-16Z" style="fill: #4c78a8;"></path><path d="M162,115h16v85h-16Z" style="fill: #4c78a8;"></path><path d="M402,154h16v46h-16Z" style="fill: #4c78a8;"></path><path d="M2,111.5h16v88.5h-16Z" style="fill: #4c78a8;"></path></g><g class="mark-rule role-mark layer_1_layer_0_marks"><line transform="translate(310,179.7021826273549)" x2="0" y2="-112.00700091362444" style="fill: none; stroke: black;"></line><line transform="translate(330,175.5785857374249)" x2="0" y2="-110.99819711587537" style="fill: none; stroke: black;"></line><line transform="translate(390,188.0163472089296)" x2="0" y2="-110.86641534809173" style="fill: none; stroke: black;"></line><line transform="translate(350,174.5157123235152)" x2="0" y2="-117.37242993803565" style="fill: none; stroke: black;"></line><line transform="translate(50,155.3609823149645)" x2="0" y2="-115.30284551081002" style="fill: none; stroke: black;"></line><line transform="translate(70,153.29490674378766)" x2="0" y2="-110.16994169270365" style="fill: none; stroke: black;"></line><line transform="translate(90,156.28123554260426)" x2="0" y2="-106.9838510657722" style="fill: none; stroke: black;"></line><line transform="translate(110,151.47490752534554)" x2="0" y2="-102.35805204491092" style="fill: none; stroke: black;"></line><line transform="translate(130,153.11127372836103)" x2="0" y2="-107.77415665212442" style="fill: none; stroke: black;"></line><line transform="translate(150,157.53007183204087)" x2="0" y2="-102.5638863541403" style="fill: none; stroke: black;"></line><line transform="translate(190,156.97341513868363)" x2="0" y2="-110.42906066952415" style="fill: none; stroke: black;"></line><line transform="translate(210,157.35470951793576)" x2="0" y2="-113.61510085405314" style="fill: none; stroke: black;"></line><line transform="translate(230,155.64028410608626)" x2="0" y2="-110.67213606460987" style="fill: none; stroke: black;"></line><line transform="translate(250,158.85849850110827)" x2="0" y2="-107.70985414507373" style="fill: none; stroke: black;"></line><line transform="translate(270,161.40130080309274)" x2="0" y2="-111.17424064854276" style="fill: none; stroke: black;"></line><line transform="translate(290,169.01157226416677)" x2="0" y2="-123.04219214738117" style="fill: none; stroke: black;"></line><line transform="translate(430,122.35935399976967)" x2="0" y2="-120.55400211718643" style="fill: none; stroke: black;"></line><line transform="translate(370,165.2445774819604)" x2="0" y2="-120.70014787172227" style="fill: none; stroke: black;"></line><line transform="translate(30,177.0348687506155)" x2="0" y2="-100.51383198942" style="fill: none; stroke: black;"></line><line transform="translate(170,157.53917507033577)" x2="0" y2="-105.84442579078973" style="fill: none; stroke: black;"></line><line transform="translate(410,170.7421526092133)" x2="0" y2="-41.72461529594594" style="fill: none; stroke: black;"></line><line transform="translate(10,146.44065874422955)" x2="0" y2="-63.16798415512578" style="fill: none; stroke: black;"></line></g><g class="mark-text role-title" style="pointer-events: none;"><text text-anchor="middle" transform="translate(220,-140)" style="font-family: sans-serif; font-size: 13px; font-weight: bold; fill: #000; opacity: 1;">Median Ice Thickness over Time</text></g><g class="mark-group role-axis"><g transform="translate(0.5,200.5)"><path class="background" d="M0,0h0v0h0Z" style="pointer-events: none; fill: none;"></path><g><g class="mark-rule role-axis-tick" style="pointer-events: none;"><line transform="translate(9,0)" x2="0" y2="5" style="fill: none; stroke: #888; stroke-width: 1; opacity: 1;"></line><line transform="translate(29,0)" x2="0" y2="5" style="fill: none; stroke: #888; stroke-width: 1; opacity: 1;"></line><line transform="translate(49,0)" x2="0" y2="5" style="fill: none; stroke: #888; stroke-width: 1; opacity: 1;"></line><line transform="translate(69,0)" x2="0" y2="5" style="fill: none; stroke: #888; stroke-width: 1; opacity: 1;"></line><line transform="translate(89,0)" x2="0" y2="5" style="fill: none; stroke: #888; stroke-width: 1; opacity: 1;"></line><line transform="translate(109,0)" x2="0" y2="5" style="fill: none; stroke: #888; stroke-width: 1; opacity: 1;"></line><line transform="translate(129,0)" x2="0" y2="5" style="fill: none; stroke: #888; stroke-width: 1; opacity: 1;"></line><line transform="translate(149,0)" x2="0" y2="5" style="fill: none; stroke: #888; stroke-width: 1; opacity: 1;"></line><line transform="translate(169,0)" x2="0" y2="5" style="fill: none; stroke: #888; stroke-width: 1; opacity: 1;"></line><line transform="translate(189,0)" x2="0" y2="5" style="fill: none; stroke: #888; stroke-width: 1; opacity: 1;"></line><line transform="translate(209,0)" x2="0" y2="5" style="fill: none; stroke: #888; stroke-width: 1; opacity: 1;"></line><line transform="translate(229,0)" x2="0" y2="5" style="fill: none; stroke: #888; stroke-width: 1; opacity: 1;"></line><line transform="translate(249,0)" x2="0" y2="5" style="fill: none; stroke: #888; stroke-width: 1; opacity: 1;"></line><line transform="translate(269,0)" x2="0" y2="5" style="fill: none; stroke: #888; stroke-width: 1; opacity: 1;"></line><line transform="translate(289,0)" x2="0" y2="5" style="fill: none; stroke: #888; stroke-width: 1; opacity: 1;"></line><line transform="translate(309,0)" x2="0" y2="5" style="fill: none; stroke: #888; stroke-width: 1; opacity: 1;"></line><line transform="translate(329,0)" x2="0" y2="5" style="fill: none; stroke: #888; stroke-width: 1; opacity: 1;"></line><line transform="translate(349,0)" x2="0" y2="5" style="fill: none; stroke: #888; stroke-width: 1; opacity: 1;"></line><line transform="translate(369,0)" x2="0" y2="5" style="fill: none; stroke: #888; stroke-width: 1; opacity: 1;"></line><line transform="translate(389,0)" x2="0" y2="5" style="fill: none; stroke: #888; stroke-width: 1; opacity: 1;"></line><line transform="translate(409,0)" x2="0" y2="5" style="fill: none; stroke: #888; stroke-width: 1; opacity: 1;"></line><line transform="translate(429,0)" x2="0" y2="5" style="fill: none; stroke: #888; stroke-width: 1; opacity: 1;"></line></g><g class="mark-text role-axis-label" style="pointer-events: none;"><text text-anchor="end" transform="translate(9,7) rotate(270) translate(0,3)" style="font-family: sans-serif; font-size: 10px; fill: #000; opacity: 1;">1981</text><text text-anchor="end" transform="translate(29,7) rotate(270) translate(0,3)" style="font-family: sans-serif; font-size: 10px; fill: #000; opacity: 1;">1982</text><text text-anchor="end" transform="translate(49,7) rotate(270) translate(0,3)" style="font-family: sans-serif; font-size: 10px; fill: #000; opacity: 1;">1983</text><text text-anchor="end" transform="translate(69,7) rotate(270) translate(0,3)" style="font-family: sans-serif; font-size: 10px; fill: #000; opacity: 1;">1984</text><text text-anchor="end" transform="translate(89,7) rotate(270) translate(0,3)" style="font-family: sans-serif; font-size: 10px; fill: #000; opacity: 1;">1985</text><text text-anchor="end" transform="translate(109,7) rotate(270) translate(0,3)" style="font-family: sans-serif; font-size: 10px; fill: #000; opacity: 1;">1986</text><text text-anchor="end" transform="translate(129,7) rotate(270) translate(0,3)" style="font-family: sans-serif; font-size: 10px; fill: #000; opacity: 1;">1987</text><text text-anchor="end" transform="translate(149,7) rotate(270) translate(0,3)" style="font-family: sans-serif; font-size: 10px; fill: #000; opacity: 1;">1988</text><text text-anchor="end" transform="translate(169,7) rotate(270) translate(0,3)" style="font-family: sans-serif; font-size: 10px; fill: #000; opacity: 1;">1989</text><text text-anchor="end" transform="translate(189,7) rotate(270) translate(0,3)" style="font-family: sans-serif; font-size: 10px; fill: #000; opacity: 1;">1990</text><text text-anchor="end" transform="translate(209,7) rotate(270) translate(0,3)" style="font-family: sans-serif; font-size: 10px; fill: #000; opacity: 1;">1991</text><text text-anchor="end" transform="translate(229,7) rotate(270) translate(0,3)" style="font-family: sans-serif; font-size: 10px; fill: #000; opacity: 1;">1992</text><text text-anchor="end" transform="translate(249,7) rotate(270) translate(0,3)" style="font-family: sans-serif; font-size: 10px; fill: #000; opacity: 1;">1993</text><text text-anchor="end" transform="translate(269,7) rotate(270) translate(0,3)" style="font-family: sans-serif; font-size: 10px; fill: #000; opacity: 1;">1994</text><text text-anchor="end" transform="translate(289,7) rotate(270) translate(0,3)" style="font-family: sans-serif; font-size: 10px; fill: #000; opacity: 1;">1995</text><text text-anchor="end" transform="translate(309,7) rotate(270) translate(0,3)" style="font-family: sans-serif; font-size: 10px; fill: #000; opacity: 1;">1996</text><text text-anchor="end" transform="translate(329,7) rotate(270) translate(0,3)" style="font-family: sans-serif; font-size: 10px; fill: #000; opacity: 1;">1997</text><text text-anchor="end" transform="translate(349,7) rotate(270) translate(0,3)" style="font-family: sans-serif; font-size: 10px; fill: #000; opacity: 1;">1998</text><text text-anchor="end" transform="translate(369,7) rotate(270) translate(0,3)" style="font-family: sans-serif; font-size: 10px; fill: #000; opacity: 1;">1999</text><text text-anchor="end" transform="translate(389,7) rotate(270) translate(0,3)" style="font-family: sans-serif; font-size: 10px; fill: #000; opacity: 1;">2000</text><text text-anchor="end" transform="translate(409,7) rotate(270) translate(0,3)" style="font-family: sans-serif; font-size: 10px; fill: #000; opacity: 1;">2001</text><text text-anchor="end" transform="translate(429,7) rotate(270) translate(0,3)" style="font-family: sans-serif; font-size: 10px; fill: #000; opacity: 1;">2002</text></g><g class="mark-rule role-axis-domain" style="pointer-events: none;"><line transform="translate(0,0)" x2="440" y2="0" style="fill: none; stroke: #888; stroke-width: 1; opacity: 1;"></line></g><g class="mark-text role-axis-title" style="pointer-events: none;"><text text-anchor="middle" transform="translate(220,52)" style="font-family: sans-serif; font-size: 11px; font-weight: bold; fill: #000; opacity: 1;">Year</text></g></g></g></g><g class="mark-group role-axis"><g transform="translate(0.5,0.5)"><path class="background" d="M0,0h0v0h0Z" style="pointer-events: none; fill: none;"></path><g><g class="mark-rule role-axis-tick" style="pointer-events: none;"><line transform="translate(0,200)" x2="-5" y2="0" style="fill: none; stroke: #888; stroke-width: 1; opacity: 1;"></line><line transform="translate(0,150)" x2="-5" y2="0" style="fill: none; stroke: #888; stroke-width: 1; opacity: 1;"></line><line transform="translate(0,100)" x2="-5" y2="0" style="fill: none; stroke: #888; stroke-width: 1; opacity: 1;"></line><line transform="translate(0,50)" x2="-5" y2="0" style="fill: none; stroke: #888; stroke-width: 1; opacity: 1;"></line><line transform="translate(0,0)" x2="-5" y2="0" style="fill: none; stroke: #888; stroke-width: 1; opacity: 1;"></line></g><g class="mark-text role-axis-label" style="pointer-events: none;"><text text-anchor="end" transform="translate(-7,203)" style="font-family: sans-serif; font-size: 10px; fill: #000; opacity: 1;">0</text><text text-anchor="end" transform="translate(-7,153)" style="font-family: sans-serif; font-size: 10px; fill: #000; opacity: 1;">50</text><text text-anchor="end" transform="translate(-7,103)" style="font-family: sans-serif; font-size: 10px; fill: #000; opacity: 1;">100</text><text text-anchor="end" transform="translate(-7,53)" style="font-family: sans-serif; font-size: 10px; fill: #000; opacity: 1;">150</text><text text-anchor="end" transform="translate(-7,3)" style="font-family: sans-serif; font-size: 10px; fill: #000; opacity: 1;">200</text></g><g class="mark-rule role-axis-domain" style="pointer-events: none;"><line transform="translate(0,200)" x2="0" y2="-200" style="fill: none; stroke: #888; stroke-width: 1; opacity: 1;"></line></g><g class="mark-text role-axis-title" style="pointer-events: none;"><text text-anchor="middle" transform="translate(-35,100) rotate(-90) translate(0,-2)" style="font-family: sans-serif; font-size: 11px; font-weight: bold; fill: #000; opacity: 1;">Median Ice Thickness Averages(cm), mean_ice_thickness</text></g></g></g></g></g></g></g></g></svg>